<?xml version="1.0" encoding="UTF-8" standalone="no"?>
<svg
   xmlns:dc="http://purl.org/dc/elements/1.1/"
   xmlns:cc="http://creativecommons.org/ns#"
   xmlns:rdf="http://www.w3.org/1999/02/22-rdf-syntax-ns#"
   xmlns:svg="http://www.w3.org/2000/svg"
   xmlns="http://www.w3.org/2000/svg"
   xmlns:sodipodi="http://sodipodi.sourceforge.net/DTD/sodipodi-0.dtd"
   xmlns:inkscape="http://www.inkscape.org/namespaces/inkscape"
   height="472pt"
   viewBox="-3 0 471 472"
   width="472pt"
   version="1.1"
   id="svg56"
   sodipodi:docname="import-excel.svg"
   inkscape:version="0.92.4 (5da689c313, 2019-01-14)"
   inkscape:export-filename="C:\Users\Abdus Saboor\Desktop\svgs\2078671-stock-investment\svg\upload-ēxcel.png"
   inkscape:export-xdpi="100"
   inkscape:export-ydpi="100">
  <metadata
     id="metadata62">
    <rdf:RDF>
      <cc:Work
         rdf:about="">
        <dc:format>image/svg+xml</dc:format>
        <dc:type
           rdf:resource="http://purl.org/dc/dcmitype/StillImage" />
        <dc:title />
      </cc:Work>
    </rdf:RDF>
  </metadata>
  <defs
     id="defs60" />
  <sodipodi:namedview
     pagecolor="#ffffff"
     bordercolor="#666666"
     borderopacity="1"
     objecttolerance="10"
     gridtolerance="10"
     guidetolerance="10"
     inkscape:pageopacity="0"
     inkscape:pageshadow="2"
     inkscape:window-width="1920"
     inkscape:window-height="986"
     id="namedview58"
     showgrid="false"
     inkscape:zoom="0.75"
     inkscape:cx="312.73626"
     inkscape:cy="325.40081"
     inkscape:window-x="-11"
     inkscape:window-y="-11"
     inkscape:window-maximized="1"
     inkscape:current-layer="svg56" />
  <path
     d="m 224.5,81 c 0,-44.183594 35.81641,-80 80,-80 44.18359,0 80,35.816406 80,80 h 24 c 30.92969,0 56,25.07031 56,56 0,30.92969 -25.07031,56 -56,56 h -216 c -30.92969,0 -56,-25.07031 -56,-56 0,-30.92969 25.07031,-56 56,-56 z m 0,0"
     id="path2"
     inkscape:connector-curvature="0"
     style="fill:#efefef" />
  <path
     d="M 18.554054,128 H 316.44595 c 9.97028,0 18.05405,7.16406 18.05405,16 V 320 H 0.5 V 144 c 0,-8.83594 8.0837727,-16 18.054054,-16 z m 0,0"
     id="path4"
     style="fill:#7dafff;fill-opacity:1;stroke-width:1.06225157"
     inkscape:connector-curvature="0" />
  <path
     d="m 0.5,320 h 334 v 64 c 0,8.83594 -8.08377,16 -18.05405,16 H 18.554054 C 8.5837727,400 0.5,392.83594 0.5,384 Z m 0,0"
     id="path6"
     style="fill:#c2c2c2;fill-opacity:1;stroke-width:1.06225157"
     inkscape:connector-curvature="0" />
  <g
     id="g1091"
     transform="translate(23)">
    <path
       style="fill:#dfdfdf;fill-opacity:1"
       id="path8"
       d="m 176.5,400 h -56 l 24,64 h 56 z m 0,0"
       inkscape:connector-curvature="0" />
    <path
       style="fill:#dfdfdf;fill-opacity:1"
       id="path10"
       d="m 160.5,360 c 0,8.83594 -7.16406,16 -16,16 -8.83594,0 -16,-7.16406 -16,-16 0,-8.83594 7.16406,-16 16,-16 8.83594,0 16,7.16406 16,16 z m 0,0"
       inkscape:connector-curvature="0" />
    <path
       style="fill:#c2c2c2;fill-opacity:1"
       id="path12"
       d="m 72.5,456 h 144 v 16 h -144 z m 0,0"
       inkscape:connector-curvature="0" />
  </g>
  <path
     d="M 415.84375,157.65625 389.5,131.3125 363.15625,157.65625 351.84375,146.34375 389.5,108.6875 l 37.65625,37.65625 z m 0,0"
     id="path52"
     inkscape:connector-curvature="0"
     style="fill:#898989" />
  <path
     d="m 381.5,120 h 16 v 128 h -16 z m 0,0"
     id="path54"
     inkscape:connector-curvature="0"
     style="fill:#898989" />
  <path
     style="fill:#f6bb00;stroke-width:0.75;fill-opacity:1"
     inkscape:connector-curvature="0"
     d="m 238.50001,235.9997 h 228 v 234.00001 h -228 z"
     id="path990" />
  <g
     transform="matrix(0.75000002,0,0,0.75000002,172.5,217.9997)"
     style="fill:#ffef87;fill-opacity:1"
     id="g1012">
    <path
       inkscape:connector-curvature="0"
       d="m 120,120 h 48 v 48 h -48 z"
       id="path992"
       style="fill:#ffef87;fill-opacity:1" />
    <path
       inkscape:connector-curvature="0"
       d="m 200,120 h 48 v 48 h -48 z"
       id="path994"
       style="fill:#ffef87;fill-opacity:1" />
    <path
       inkscape:connector-curvature="0"
       d="m 280,120 h 48 v 48 h -48 z"
       id="path996"
       style="fill:#ffef87;fill-opacity:1" />
    <path
       inkscape:connector-curvature="0"
       d="m 120,200 h 48 v 48 h -48 z"
       id="path998"
       style="fill:#ffef87;fill-opacity:1" />
    <path
       inkscape:connector-curvature="0"
       d="m 200,200 h 48 v 48 h -48 z"
       id="path1000"
       style="fill:#ffef87;fill-opacity:1" />
    <path
       inkscape:connector-curvature="0"
       d="m 280,200 h 48 v 48 h -48 z"
       id="path1002"
       style="fill:#ffef87;fill-opacity:1" />
    <path
       inkscape:connector-curvature="0"
       d="m 120,280 h 48 v 48 h -48 z"
       id="path1004"
       style="fill:#ffef87;fill-opacity:1" />
    <path
       inkscape:connector-curvature="0"
       d="m 200,280 h 48 v 48 h -48 z"
       id="path1006"
       style="fill:#ffef87;fill-opacity:1" />
    <path
       inkscape:connector-curvature="0"
       d="m 280,280 h 48 v 48 h -48 z"
       id="path1008"
       style="fill:#ffef87;fill-opacity:1" />
    <path
       inkscape:connector-curvature="0"
       d="m 360,88 h 32 v 248 h -32 z"
       id="path1010"
       style="fill:#ffef87;fill-opacity:1" />
  </g>
  <path
     style="fill:#eda600;stroke-width:0.75;fill-opacity:1"
     inkscape:connector-curvature="0"
     d="m 442.50001,349.9997 h 24 v 36 h -24 z"
     id="path1014" />
  <path
     style="fill:#eda600;stroke-width:0.75;fill-opacity:1"
     inkscape:connector-curvature="0"
     d="m 238.50001,235.9997 h 228 v 48 h -228 z"
     id="path1016" />
  <circle
     style="fill:#eb352f;stroke-width:0.75"
     cx="262.5"
     cy="259.99969"
     r="6"
     id="circle1018" />
  <circle
     style="fill:#f2e368;stroke-width:0.75"
     cx="286.50003"
     cy="259.99969"
     r="6"
     id="circle1020" />
  <circle
     style="fill:#a0cc00;stroke-width:0.75"
     cx="310.50003"
     cy="259.99969"
     r="6"
     id="circle1022" />
</svg>
