<?xml version="1.0" encoding="UTF-8" standalone="no"?>
<svg
   xmlns:dc="http://purl.org/dc/elements/1.1/"
   xmlns:cc="http://creativecommons.org/ns#"
   xmlns:rdf="http://www.w3.org/1999/02/22-rdf-syntax-ns#"
   xmlns:svg="http://www.w3.org/2000/svg"
   xmlns="http://www.w3.org/2000/svg"
   xmlns:sodipodi="http://sodipodi.sourceforge.net/DTD/sodipodi-0.dtd"
   xmlns:inkscape="http://www.inkscape.org/namespaces/inkscape"
   id="Layer_3"
   enable-background="new 0 0 64 64"
   height="512"
   viewBox="0 0 64 64"
   width="512"
   version="1.1"
   sodipodi:docname="ipo.svg"
   inkscape:version="0.92.4 (5da689c313, 2019-01-14)">
  <metadata
     id="metadata35">
    <rdf:RDF>
      <cc:Work
         rdf:about="">
        <dc:format>image/svg+xml</dc:format>
        <dc:type
           rdf:resource="http://purl.org/dc/dcmitype/StillImage" />
      </cc:Work>
    </rdf:RDF>
  </metadata>
  <defs
     id="defs33" />
  <sodipodi:namedview
     pagecolor="#ffffff"
     bordercolor="#666666"
     borderopacity="1"
     objecttolerance="10"
     gridtolerance="10"
     guidetolerance="10"
     inkscape:pageopacity="0"
     inkscape:pageshadow="2"
     inkscape:window-width="1920"
     inkscape:window-height="986"
     id="namedview31"
     showgrid="false"
     inkscape:zoom="0.921875"
     inkscape:cx="304.36287"
     inkscape:cy="245.28653"
     inkscape:window-x="-11"
     inkscape:window-y="-11"
     inkscape:window-maximized="1"
     inkscape:current-layer="Layer_3"
     showguides="true"
     inkscape:guide-bbox="true">
    <sodipodi:guide
       position="60.067797,60.881356"
       orientation="0,1"
       id="guide1024"
       inkscape:locked="false" />
    <sodipodi:guide
       position="35.118644,3"
       orientation="0,1"
       id="guide1030"
       inkscape:locked="false"
       inkscape:label=""
       inkscape:color="rgb(0,0,255)" />
  </sodipodi:namedview>
  <path
     style="fill:#f35244;stroke-width:0.13214709"
     inkscape:connector-curvature="0"
     d="M 56.934165,25.242917 V 13.613975 H 45.305222 v 4.228706 h 4.228707 l -12.686121,12.68612 -10.571766,-10.571767 -15.85765,15.85765 3.17153,3.171529 12.68612,-12.686119 10.571766,10.571766 15.857651,-15.857649 v 4.228706 z"
     id="path842" />
  <path
     style="fill:#4db7e5;stroke-width:0.15433225"
     inkscape:connector-curvature="0"
     d="m 20.990158,37.929038 h 4.228707 V 61 h -4.228707 z"
     id="path904" />
  <path
     style="fill:#4db7e5;stroke-width:0.25640067"
     inkscape:connector-curvature="0"
     d="m 31.561925,41.100568 h 4.228707 V 61 h -4.228707 z"
     id="path906" />
  <path
     style="fill:#4db7e5;stroke-width:0.21825874"
     inkscape:connector-curvature="0"
     d="m 42.133692,37.929038 h 4.228706 V 61 h -4.228706 z"
     id="path908" />
  <path
     style="fill:#4db7e5;stroke-width:0.18041582"
     inkscape:connector-curvature="0"
     d="m 52.705459,29.471624 h 4.228706 V 61 h -4.228706 z"
     id="path910" />
  <path
     style="fill:#4db7e5;fill-opacity:1;stroke-width:0.86205274"
     d="m 8.6851747,3.118644 v 31.512279 c -1.0267051,0.597403 -1.7241056,1.696579 -1.7241056,2.96983 0,1.904275 1.5439375,3.448213 3.4482119,3.448213 1.904274,0 3.44821,-1.543938 3.44821,-3.448213 0,-1.273251 -0.697401,-2.372427 -1.724105,-2.96983 V 15.187381 H 27.650335 V 3.118644 Z m 2.5861583,2.5861578 h 1.724106 v 6.8964212 h -1.724106 z m 3.448211,0 h 3.448211 c 0.476715,0 0.862053,0.3861991 0.862053,0.8620525 v 2.5861585 c 0,0.4758533 -0.385338,0.8620532 -0.862053,0.8620532 h -2.586158 v 2.586157 H 13.857491 V 6.5668544 c 0,-0.4758534 0.385338,-0.8620525 0.862053,-0.8620526 z m 6.034371,0 h 3.448209 c 0.476716,0 0.862053,0.3861991 0.862053,0.8620525 v 5.1723147 c 0,0.475854 -0.385337,0.862054 -0.862053,0.862054 h -3.448209 c -0.476716,0 -0.862055,-0.3862 -0.862055,-0.862054 V 6.5668544 c 0,-0.4758534 0.385339,-0.8620525 0.862055,-0.8620526 z m -5.172318,1.7241047 v 0.862054 h 1.724104 v -0.862054 z m 6.034369,0 v 3.4482125 h 1.724107 V 7.4289065 Z"
     id="path20"
     inkscape:connector-curvature="0" />
  <path
     id="path1006"
     d="m 10.418392,43.214921 h 4.228706 V 61 h -4.228706 z"
     inkscape:connector-curvature="0"
     style="fill:#4db7e5;stroke-width:0.13550389" />
</svg>
