<?xml version="1.0" encoding="UTF-8" standalone="no"?>
<svg
   xmlns:dc="http://purl.org/dc/elements/1.1/"
   xmlns:cc="http://creativecommons.org/ns#"
   xmlns:rdf="http://www.w3.org/1999/02/22-rdf-syntax-ns#"
   xmlns:svg="http://www.w3.org/2000/svg"
   xmlns="http://www.w3.org/2000/svg"
   xmlns:sodipodi="http://sodipodi.sourceforge.net/DTD/sodipodi-0.dtd"
   xmlns:inkscape="http://www.inkscape.org/namespaces/inkscape"
   id="flat"
   height="512"
   viewBox="0 0 512 512"
   width="512"
   version="1.1"
   sodipodi:docname="manage-exchange.svg"
   inkscape:version="0.92.4 (5da689c313, 2019-01-14)">
  <metadata
     id="metadata75">
    <rdf:RDF>
      <cc:Work
         rdf:about="">
        <dc:format>image/svg+xml</dc:format>
        <dc:type
           rdf:resource="http://purl.org/dc/dcmitype/StillImage" />
        <dc:title />
      </cc:Work>
    </rdf:RDF>
  </metadata>
  <defs
     id="defs73" />
  <sodipodi:namedview
     pagecolor="#ffffff"
     bordercolor="#666666"
     borderopacity="1"
     objecttolerance="10"
     gridtolerance="10"
     guidetolerance="10"
     inkscape:pageopacity="0"
     inkscape:pageshadow="2"
     inkscape:window-width="1920"
     inkscape:window-height="986"
     id="namedview71"
     showgrid="false"
     inkscape:zoom="1.3037281"
     inkscape:cx="213.40225"
     inkscape:cy="197.19238"
     inkscape:window-x="-11"
     inkscape:window-y="-11"
     inkscape:window-maximized="1"
     inkscape:current-layer="flat" />
  <g
     id="g961"
     transform="matrix(1.0864991,0,0,1.0864991,-23.770894,-20.686148)">
    <path
       id="path2"
       d="M 72,152 H 440 V 488 H 72 Z"
       inkscape:connector-curvature="0"
       style="fill:#3b57c4" />
    <path
       id="path4"
       d="m 352,184 h 32 v 144 h -32 z"
       inkscape:connector-curvature="0"
       style="fill:#548aff" />
    <path
       id="path6"
       d="m 424,184 h 32 v 168 h -32 z"
       inkscape:connector-curvature="0"
       style="fill:#548aff" />
    <path
       id="path8"
       d="m 464,272 h -32 l -16,96 v 24 h 64 v -24 -16 z"
       inkscape:connector-curvature="0"
       style="fill:#b2c6eb" />
    <path
       id="path10"
       d="m 328,368 16,-96 h 32 l 16,80 v 16 z"
       inkscape:connector-curvature="0"
       style="fill:#b2c6eb" />
    <path
       id="path12"
       d="m 304,408 h 184 v 80 H 304 Z"
       inkscape:connector-curvature="0"
       style="fill:#d1e4ff" />
    <path
       id="path14"
       d="M 32,320 H 160 V 488 H 32 Z"
       inkscape:connector-curvature="0"
       style="fill:#d1e4ff" />
    <path
       id="path16"
       d="m 56,400 h 16 v 24 H 56 Z"
       inkscape:connector-curvature="0"
       style="fill:#b2c6eb" />
    <path
       id="path18"
       d="m 88,400 h 16 v 24 H 88 Z"
       inkscape:connector-curvature="0"
       style="fill:#b2c6eb" />
    <path
       id="path20"
       d="m 120,400 h 16 v 24 h -16 z"
       inkscape:connector-curvature="0"
       style="fill:#b2c6eb" />
    <path
       id="path22"
       d="m 160,320 8,-32 H 24 l 8,32 z"
       inkscape:connector-curvature="0"
       style="fill:#639aff" />
    <path
       id="path24"
       d="m 56,352 h 16 v 24 H 56 Z"
       inkscape:connector-curvature="0"
       style="fill:#b2c6eb" />
    <path
       id="path26"
       d="m 88,352 h 16 v 24 H 88 Z"
       inkscape:connector-curvature="0"
       style="fill:#b2c6eb" />
    <path
       id="path28"
       d="m 120,352 h 16 v 24 h -16 z"
       inkscape:connector-curvature="0"
       style="fill:#b2c6eb" />
    <path
       id="path30"
       d="m 80,448 h 32 v 40 H 80 Z"
       inkscape:connector-curvature="0"
       style="fill:#b2c6eb" />
    <path
       id="path32"
       d="m 352,440 h 32 v 48 h -32 z"
       inkscape:connector-curvature="0"
       style="fill:#b2c6eb" />
    <path
       id="path34"
       d="m 400,408 v -64 l -96,32 v 32 z"
       inkscape:connector-curvature="0"
       style="fill:#639aff" />
    <path
       id="path36"
       d="m 488,408 v -64 l -88,32 v 32 z"
       inkscape:connector-curvature="0"
       style="fill:#548aff" />
    <g
       id="g52"
       style="fill:#4976f2">
      <path
         id="path38"
         d="M 472,104 256,24 40,104 Z"
         inkscape:connector-curvature="0" />
      <path
         id="path40"
         d="m 96,152 -8,32 H 56 l -8,-32 z"
         inkscape:connector-curvature="0" />
      <path
         id="path42"
         d="m 168,152 -8,32 h -32 l -8,-32 z"
         inkscape:connector-curvature="0" />
      <path
         id="path44"
         d="m 240,152 -8,32 h -32 l -8,-32 z"
         inkscape:connector-curvature="0" />
      <path
         id="path46"
         d="m 312,152 -8,32 h -32 l -8,-32 z"
         inkscape:connector-curvature="0" />
      <path
         id="path48"
         d="m 392,152 -8,32 h -32 l -8,-32 z"
         inkscape:connector-curvature="0" />
      <path
         id="path50"
         d="m 464,152 -8,32 h -32 l -8,-32 z"
         inkscape:connector-curvature="0" />
    </g>
    <path
       id="path54"
       d="m 200,184 h 32 v 272 h -32 z"
       inkscape:connector-curvature="0"
       style="fill:#548aff" />
    <path
       id="path56"
       d="m 232,456 h -32 l -8,32 h 48 z"
       inkscape:connector-curvature="0"
       style="fill:#4976f2" />
    <path
       id="path58"
       d="m 272,184 h 32 v 272 h -32 z"
       inkscape:connector-curvature="0"
       style="fill:#548aff" />
    <path
       id="path60"
       d="m 304,456 h -32 l -8,32 h 40 z"
       inkscape:connector-curvature="0"
       style="fill:#4976f2" />
    <path
       id="path62"
       d="m 472,104 -8,48 H 48 l -8,-48 z"
       inkscape:connector-curvature="0"
       style="fill:#548aff" />
    <path
       id="path64"
       d="m 416,440 h 32 v 48 h -32 z"
       inkscape:connector-curvature="0"
       style="fill:#b2c6eb" />
    <path
       id="path66"
       d="m 128,184 h 32 v 104 h -32 z"
       inkscape:connector-curvature="0"
       style="fill:#548aff" />
    <path
       id="path68"
       d="M 56,184 H 88 V 288 H 56 Z"
       inkscape:connector-curvature="0"
       style="fill:#548aff" />
  </g>
  <g
     id="g985"
     transform="matrix(0.60491287,0,0,0.60491287,201.67045,285.06834)">
    <path
       id="path934"
       d="m 512.74,188.8501 v -96 h -64 L 433.48,56 l 45.25,-45.25976 -67.88,-67.88037 -45.26,45.25 -36.85,-15.25977 v -64 h -96 v 64 l -36.85,15.25977 -45.26,-45.25 L 82.75,10.74024 128,56 112.74,92.8501 h -64 v 96 h 64 l 15.26,36.8501 -45.25,45.25976 67.88,67.88037 45.26,-45.25 36.85,15.25977 v 64 h 96 v -64 l 36.85,-15.25977 45.26,45.25 67.88,-67.88037 -45.25,-45.25976 15.26,-36.8501 z m -232,40 a 88,88 0 1 1 88,-88 88,88 0 0 1 -88,88 z"
       inkscape:connector-curvature="0"
       style="fill:#f6bb00" />
    <path
       id="path936"
       d="m 448.74,188.8501 -15.26,36.8501 45.25,45.25976 -67.88,67.88037 -45.26,-45.25 -36.85,15.25977 v 64 h -96 v -64 l -36.85,-15.25977 -45.26,45.25 L 82.75,270.95996 128,225.7002 112.74,188.8501 h -64 v -48 h 67.05564 A 31.91639,31.91639 0 0 1 147.18391,166.6493 136.014,136.014 0 1 0 306.53918,7.294 31.91638,31.91638 0 0 1 280.74,-24.09426 V -91.1499 h 48 v 64 l 36.85,15.25977 45.26,-45.25 67.88,67.88037 L 433.48,56 448.74,92.8501 h 64 v 96 z"
       inkscape:connector-curvature="0"
       style="fill:#eda600" />
  </g>
</svg>
